<?xml version="1.0" encoding="iso-8859-1"?>
<!-- Generator: Adobe Illustrator 19.0.0, SVG Export Plug-In . SVG Version: 6.00 Build 0)  -->
<svg version="1.1" id="Layer_1" xmlns="http://www.w3.org/2000/svg" xmlns:xlink="http://www.w3.org/1999/xlink" x="0px" y="0px"
	 viewBox="0 0 512 512" style="enable-background:new 0 0 512 512;" xml:space="preserve">
<path d="M94.68,0c-17.6,0-32,14.4-32,32v448c0,17.6,14.4,32,32,32h322.64c17.6,0,32-14.4,32-32V111.216L338.152,0H94.68z"/>
<polygon style="fill:#999999;" points="338.104,111.2 449.304,111.2 338.152,0 338.104,0 "/>
<g style="opacity:0.25;">
	<polygon style="fill:#FFFFFF;" points="62.68,388.576 62.68,310.56 152.792,310.56 	"/>
</g>
<g>
	<rect x="62.68" y="302.56" style="fill:#848484;" width="386.56" height="8"/>
	<rect x="62.68" y="435.52" style="fill:#848484;" width="386.56" height="8"/>
</g>
<g>
	<path style="fill:#FFFFFF;" d="M118.568,410.24v-74.656h36.704c10.416,0,17.728,2.288,21.888,6.848
		c4.192,4.56,6.288,12.544,6.288,23.952c0,18.624-1.68,30.592-5.024,35.904c-3.36,5.296-10.944,7.952-22.704,7.952L118.568,410.24
		L118.568,410.24z M132.744,398.32h20.176c6.784,0,11.168-1.568,13.152-4.672c2-3.12,2.992-10,2.992-20.656
		c0-11.008-0.896-18-2.672-20.992c-1.792-2.992-5.984-4.464-12.592-4.464h-21.056V398.32z"/>
	<path style="fill:#FFFFFF;" d="M224.792,334.928c13.568,0,22.288,2.272,26.192,6.768s5.84,14.576,5.84,30.208
		c0,17.104-1.952,27.872-5.872,32.336c-3.904,4.448-13.408,6.672-28.464,6.672c-13.568,0-22.32-2.208-26.304-6.592
		s-5.952-14.064-5.952-28.992c0-17.792,1.936-28.976,5.84-33.536S209.544,334.928,224.792,334.928z M223.688,347.072
		c-9.536,0-15.088,1.216-16.688,3.664s-2.4,10.912-2.4,25.376c0,10.72,0.944,17.168,2.816,19.36s7.408,3.28,16.592,3.28
		c8.8,0,14.064-1.232,15.808-3.68c1.744-2.464,2.624-9.92,2.624-22.384c0-12.512-0.832-19.904-2.48-22.192
		C238.296,348.208,232.888,347.072,223.688,347.072z"/>
	<path style="fill:#FFFFFF;" d="M312.488,383.616h14.224v2.56c0,10.384-1.888,17.104-5.68,20.16
		c-3.776,3.04-12.176,4.56-25.152,4.56c-14.72,0-23.776-2.4-27.168-7.216s-5.088-17.68-5.088-38.608
		c0-12.336,2.32-20.416,6.912-24.32c4.592-3.872,14.192-5.824,28.816-5.824c10.64,0,17.744,1.616,21.328,4.8s5.36,9.52,5.36,19.008
		l0.048,1.696h-14.224v-1.92c0-4.896-0.912-8.016-2.752-9.376c-1.84-1.376-6.048-2.048-12.608-2.048
		c-8.784,0-14.064,1.056-15.824,3.216s-2.656,8.528-2.656,19.136c0,14.304,0.8,22.752,2.368,25.376
		c1.6,2.624,6.72,3.936,15.408,3.936c7.024,0,11.6-0.736,13.68-2.192s3.152-4.672,3.152-9.632L312.488,383.616z"/>
	<path style="fill:#FFFFFF;" d="M398.52,335.584l-22.416,36.16l23.904,38.496h-16.624l-10.72-17.936
		c-1.664-2.768-3.216-5.584-4.72-8.416l-1.536-2.96l-1.584-2.912H364.6l-1.584,2.976c-1.904,3.568-4.064,7.344-6.464,11.312
		l-10.768,17.936h-17.056l24.496-38.496l-22.752-36.16h16.896l9.968,16.624c1.568,2.624,3.024,5.216,4.416,7.776l1.36,2.624
		l1.376,2.624h0.224c0.624-1.168,1.072-2.048,1.376-2.624l1.36-2.576c1.168-2.272,2.624-4.848,4.368-7.76l9.952-16.688
		L398.52,335.584L398.52,335.584z"/>
</g>
<g>
</g>
<g>
</g>
<g>
</g>
<g>
</g>
<g>
</g>
<g>
</g>
<g>
</g>
<g>
</g>
<g>
</g>
<g>
</g>
<g>
</g>
<g>
</g>
<g>
</g>
<g>
</g>
<g>
</g>
</svg>
